# xmcd CD database file
#
# Track frame offsets:
#	150
#	17520
#	30262
#	47495
#	62252
#	80232
#	94070
#	107242
#	121007
#	137772
#	151035
#
# Disc length: 2221 seconds
#
# Revision: 0
# Processed by: cddbd v1.5.1PL2 Copyright (c) Steve Scherf et al.
# Submitted via: CDex 1.51
#
DISCID=7708ab0b
DTITLE=Lillian Askeland med Country Snakes - It takes a little rain
DYEAR=1992
DGENRE=Country
TTITLE0=It takes a little rain  - (To make love grow)
TTITLE1=I still go crazy in the drivin' rain
TTITLE2=Wall of tears
TTITLE3=I'm here eaiting for you
TTITLE4=Hun var en liten fugl  - (On the other side of blue)
TTITLE5=Sympati  - (Sympathy)
TTITLE6=Sweet dreams
TTITLE7=Are there anymore like you
TTITLE8=Gi meg god tid  - (Slow dance)
TTITLE9=They always look better  - (When they're leavin')
TTITLE10=Do ya'
EXTD=YEAR: 1992
EXTT0=
EXTT1=
EXTT2=
EXTT3=
EXTT4=
EXTT5=
EXTT6=
EXTT7=
EXTT8=
EXTT9=
EXTT10=
PLAYORDER=
